<svg xmlns="http://www.w3.org/2000/svg" viewBox="0 -150 760 830" role="img">
  <rect x="0" y="-150" width="760" height="830" fill="#f4f1ea"/>
  <text x="380" y="34" text-anchor="middle" font-family="Georgia, serif" font-size="16" fill="#3d3429">5. Infinity 2× 3927A + aéreo 150 — queen</text>
  <text x="380" y="54" text-anchor="middle" font-family="system-ui, sans-serif" font-size="12" fill="#6b6156">vão 33 cm · aéreo 150 é 6 cm mais estreito que o 1,56 m</text>
  <rect x="80" y="90" width="600" height="480" fill="#faf8f4" stroke="#3d3429" stroke-width="2"/>
  <rect x="500" y="-80" width="180" height="170" fill="#efe8dc" stroke="#3d3429" stroke-width="2"/>
  <rect x="500" y="84" width="180" height="8" fill="#f4f1ea"/>
  <line x1="500" y1="-80" x2="680" y2="-80" stroke="#2c5a3d" stroke-width="4"/>
  <path d="M500 -80 A180 180 0 0 1 680 90" fill="#6b8f71" fill-opacity="0.18" stroke="#2c5a3d" stroke-dasharray="4 3"/>
  <text x="590" y="-94" text-anchor="middle" font-family="system-ui, sans-serif" font-size="10" fill="#2c5a3d">porta 90 cm</text>
  <text x="698" y="-8" font-family="system-ui, sans-serif" font-size="10" fill="#2c5a3d" transform="rotate(90 698 -8)">recuo 0,85 m</text>
  <rect x="676" y="110" width="14" height="254" fill="#8ec4d4" stroke="#2c5a6e" stroke-width="2"/>
  <text x="720" y="237" font-family="system-ui, sans-serif" font-size="10" fill="#2c5a6e" transform="rotate(90 720 237)">janela</text>
  <rect x="570" y="110" width="110" height="254" fill="#5f8a84" stroke="#2c5a56" stroke-width="1.5"/>
  <text x="625" y="228" text-anchor="middle" font-family="system-ui, sans-serif" font-size="11" fill="#faf8f4" font-weight="600">mesa</text>
  <text x="625" y="244" text-anchor="middle" font-family="system-ui, sans-serif" font-size="9" fill="#faf8f4">127 × 55</text>
  <rect x="480" y="187" width="90" height="90" fill="none" stroke="#2c5a56" stroke-dasharray="4 3"/>
  <text x="525" y="238" text-anchor="middle" font-family="system-ui, sans-serif" font-size="9" fill="#2c5a56">cadeira</text>
  <text x="380" y="598" text-anchor="middle" font-family="system-ui, sans-serif" font-size="12" fill="#3d3429">3,00 m · porta no recuo (0,85 m para fora)</text>
  <text x="28" y="340" text-anchor="middle" font-family="system-ui, sans-serif" font-size="12" fill="#3d3429" transform="rotate(-90 28 340)">2,40 m</text>
  <rect x="80" y="90" width="400" height="312" fill="#e8dcc8" stroke="#5c4033" stroke-width="1.5"/>
  <text x="280" y="230" text-anchor="middle" font-family="system-ui, sans-serif" font-size="13" fill="#3d3429" font-weight="600">Colchão 1,56 × 2,00 m</text>
  <text x="70" y="246" text-anchor="end" font-family="system-ui, sans-serif" font-size="11" fill="#6b6156">cab.</text>
  <text x="500" y="246" font-family="system-ui, sans-serif" font-size="11" fill="#6b6156">pé 1,00 m</text>
  <rect x="80" y="90" width="93" height="300" fill="#c4a882" fill-opacity="0.85" stroke="#5c4033"/>
  <text x="126" y="240" text-anchor="middle" font-family="system-ui, sans-serif" font-size="10" fill="#3d3429" font-weight="600" transform="rotate(-90 126 240)">aéreo 150</text>
  <rect x="80" y="390" width="93" height="12" fill="none" stroke="#8a5a2b" stroke-dasharray="3 2"/>
  <text x="185" y="400" font-family="system-ui, sans-serif" font-size="10" fill="#8a5a2b">6 cm fora do aéreo</text>
  <line x1="300" y1="402" x2="300" y2="468" stroke="#8a7a68" stroke-dasharray="4 3"/>
  <text x="312" y="442" font-family="system-ui, sans-serif" font-size="11" fill="#6b6156">vão 33 cm livre</text>
  <rect x="80" y="468" width="543" height="102" fill="#a67c52" stroke="#5c4033" stroke-width="1.5"/>
  <line x1="351" y1="468" x2="351" y2="570" stroke="#5c4033" stroke-dasharray="2 2"/>
  <text x="351" y="524" text-anchor="middle" font-family="system-ui, sans-serif" font-size="12" fill="#faf8f4" font-weight="600">2× 3927A 271,6 cm · correr</text>
  <rect x="623" y="468" width="57" height="102" fill="#e4d9c4" stroke="#5c4033" stroke-dasharray="3 3"/>
  <text x="651" y="524" text-anchor="middle" font-family="system-ui, sans-serif" font-size="9" fill="#6b6156">28 cm</text>
  <text x="380" y="640" text-anchor="middle" font-family="system-ui, sans-serif" font-size="11" fill="#8a7a68">Cabeceira na 2,40 m. Queen entra no quarto; o aéreo não cobre a largura toda.</text>
</svg>
